<svg version="1.1" xmlns="http://www.w3.org/2000/svg" viewBox="0 0 466 292" width="466" height="292"><defs><clipPath id="source-alpha-boundary-clip" clipPathUnits="userSpaceOnUse"><path d="M233 1H263V2H233ZM223 2H272V3H223ZM217 3H279V4H217ZM211 4H284V5H211ZM208 5H287V6H208ZM204 6H292V7H204ZM201 7H295V8H201ZM197 8H298V9H197ZM194 9H301V10H194ZM192 10H303V11H192ZM189 11H307V12H189ZM187 12H309V13H187ZM184 13H312V14H184ZM182 14H314V15H182ZM180 15H316V16H180ZM177 16H318V17H177ZM176 17H320V18H176ZM173 18H322V19H173ZM172 19H324V20H172ZM170 20H325V21H170ZM168 21H327V22H168ZM167 22H329V23H167ZM165 23H330V24H165ZM163 24H332V25H163ZM162 25H333V26H162ZM160 26H335V27H160ZM159 27H337V28H159ZM157 28H338V29H157ZM156 29H340V30H156ZM367 28H369V31H367ZM155 30H341V31H155ZM153 31H342V32H153ZM367 31H370V32H367ZM152 32H343V33H152ZM366 32H370V34H366ZM151 33H345V34H151ZM149 34H346V35H149ZM148 35H347V36H148ZM365 34H371V37H365ZM147 36H348V37H147ZM146 37H349V38H146ZM364 37H372V38H364ZM144 38H351V39H144ZM363 38H372V39H363ZM143 39H351V40H143ZM363 39H373V40H363ZM142 40H350V41H142ZM362 40H374V41H362ZM141 41H348V42H141ZM361 41H375V42H361ZM141 42H346V43H141ZM360 42H376V43H360ZM139 43H344V44H139ZM358 43H378V44H358ZM138 44H342V45H138ZM357 44H379V45H357ZM137 45H340V46H137ZM355 45H381V46H355ZM136 46H338V47H136ZM352 46H384V47H352ZM135 47H337V48H135ZM350 47H387V48H350ZM134 48H335V49H134ZM349 48H388V49H349ZM133 49H334V50H133ZM350 49H387V50H350ZM133 50H336V51H133ZM353 50H385V51H353ZM132 51H341V52H132ZM356 51H382V52H356ZM131 52H345V53H131ZM358 52H380V53H358ZM130 53H198V54H130ZM269 53H348V54H269ZM359 53H378V54H359ZM129 54H192V55H129ZM275 54H350V55H275ZM361 54H376V55H361ZM128 55H189V56H128ZM279 55H352V56H279ZM362 55H375V56H362ZM127 56H186V57H127ZM282 56H353V57H282ZM363 56H374V57H363ZM127 57H184V58H127ZM284 57H355V58H284ZM363 57H373V58H363ZM126 58H182V59H126ZM286 58H356V59H286ZM364 58H373V59H364ZM125 59H180V60H125ZM288 59H357V60H288ZM365 59H372V61H365ZM124 60H178V61H124ZM290 60H357V61H290ZM124 61H176V62H124ZM292 61H358V62H292ZM365 61H371V62H365ZM123 62H175V63H123ZM293 62H359V63H293ZM366 62H371V63H366ZM122 63H174V64H122ZM294 63H360V64H294ZM366 63H370V64H366ZM296 64H360V65H296ZM121 64H172V66H121ZM367 64H370V66H367ZM297 65H361V66H297ZM120 66H170V67H120ZM298 66H362V67H298ZM367 66H369V67H367ZM374 66H375V67H374ZM119 67H170V68H119ZM299 67H362V68H299ZM373 67H376V69H373ZM119 68H169V69H119ZM300 68H362V69H300ZM301 69H363V70H301ZM373 69H377V70H373ZM118 69H167V71H118ZM302 70H363V71H302ZM372 70H378V72H372ZM117 71H166V72H117ZM302 71H364V72H302ZM116 72H165V73H116ZM303 72H365V73H303ZM371 72H379V73H371ZM116 73H164V74H116ZM304 73H366V74H304ZM371 73H380V74H371ZM115 74H164V75H115ZM305 74H324V75H305ZM345 74H367V75H345ZM370 74H380V75H370ZM115 75H163V76H115ZM305 75H317V76H305ZM350 75H381V76H350ZM306 76H314V77H306ZM353 76H381V77H353ZM114 76H162V78H114ZM355 77H382V78H355ZM307 77H315V79H307ZM113 78H161V79H113ZM357 78H382V79H357ZM113 79H160V80H113ZM324 79H333V80H324ZM358 79H383V80H358ZM308 79H316V81H308ZM317 80H339V81H317ZM360 80H383V81H360ZM112 80H160V82H112ZM309 81H343V82H309ZM361 81H384V82H361ZM309 82H345V83H309ZM362 82H384V83H362ZM111 82H159V84H111ZM309 83H346V84H309ZM362 83H385V84H362ZM363 84H385V85H363ZM110 84H158V86H110ZM310 84H348V86H310ZM363 85H386V86H363ZM310 86H349V87H310ZM364 86H386V87H364ZM109 86H157V88H109ZM311 87H349V88H311ZM364 87H387V88H364ZM108 88H157V89H108ZM311 88H350V89H311ZM365 88H387V89H365ZM108 89H156V90H108ZM312 89H350V91H312ZM365 89H388V92H365ZM107 90H156V93H107ZM365 92H389V93H365ZM312 91H351V94H312ZM366 93H389V94H366ZM313 94H351V95H313ZM106 93H155V96H106ZM366 94H390V97H366ZM105 96H155V98H105ZM313 95H350V99H313ZM366 97H391V99H366ZM104 98H155V100H104ZM195 99H204V100H195ZM229 99H238V100H229ZM263 99H272V100H263ZM365 99H391V100H365ZM313 99H349V101H313ZM193 100H206V101H193ZM227 100H239V101H227ZM261 100H274V101H261ZM104 100H154V102H104ZM192 101H207V102H192ZM225 101H241V102H225ZM260 101H275V102H260ZM365 100H392V103H365ZM313 101H348V103H313ZM191 102H208V103H191ZM225 102H242V103H225ZM259 102H276V103H259ZM190 103H209V104H190ZM224 103H242V104H224ZM314 103H348V104H314ZM103 102H154V105H103ZM258 103H277V105H258ZM190 104H210V105H190ZM224 104H243V105H224ZM365 103H393V106H365ZM314 104H347V106H314ZM223 105H243V106H223ZM257 105H277V106H257ZM314 106H346V107H314ZM364 106H393V107H364ZM223 106H244V108H223ZM102 105H154V109H102ZM313 107H345V109H313ZM364 107H394V109H364ZM222 108H244V110H222ZM313 109H344V110H313ZM363 109H395V112H363ZM223 110H244V112H223ZM313 110H343V112H313ZM189 105H210V113H189ZM257 106H278V113H257ZM223 112H243V114H223ZM313 112H342V114H313ZM362 112H395V114H362ZM189 113H209V114H189ZM101 109H154V115H101ZM258 113H277V115H258ZM190 114H209V115H190ZM313 114H341V115H313ZM362 114H396V115H362ZM224 114H242V116H224ZM191 115H208V116H191ZM259 115H276V116H259ZM313 115H340V116H313ZM361 115H396V116H361ZM192 116H207V117H192ZM225 116H241V117H225ZM260 116H275V117H260ZM313 116H339V117H313ZM100 115H154V118H100ZM193 117H206V118H193ZM227 117H240V118H227ZM261 117H274V118H261ZM360 116H396V119H360ZM312 117H338V119H312ZM195 118H204V119H195ZM228 118H238V119H228ZM262 118H272V119H262ZM312 119H337V120H312ZM359 119H397V121H359ZM312 120H336V121H312ZM312 121H335V122H312ZM358 121H397V122H358ZM99 118H154V123H99ZM311 122H334V123H311ZM357 122H397V124H357ZM311 123H333V124H311ZM310 124H332V126H310ZM356 124H397V126H356ZM310 126H330V127H310ZM355 126H398V127H355ZM99 123H155V128H99ZM309 127H330V128H309ZM354 127H398V129H354ZM98 128H155V129H98ZM309 128H329V129H309ZM308 129H328V130H308ZM353 129H398V130H353ZM308 130H327V131H308ZM352 130H398V132H352ZM307 131H326V132H307ZM98 129H156V133H98ZM307 132H325V133H307ZM351 132H398V133H351ZM306 133H324V134H306ZM350 133H398V134H350ZM306 134H322V135H306ZM98 133H157V136H98ZM349 134H398V136H349ZM305 135H322V136H305ZM348 136H398V137H348ZM98 136H158V138H98ZM304 136H320V138H304ZM347 137H398V138H347ZM303 138H318V139H303ZM346 138H398V139H346ZM98 138H159V140H98ZM302 139H317V140H302ZM345 139H398V141H345ZM301 140H316V141H301ZM98 140H160V142H98ZM300 141H315V142H300ZM344 141H398V142H344ZM299 142H314V143H299ZM343 142H398V143H343ZM98 142H161V144H98ZM299 143H313V144H299ZM342 143H398V144H342ZM98 144H162V145H98ZM297 144H311V145H297ZM341 144H398V145H341ZM98 145H163V146H98ZM297 145H310V146H297ZM340 145H398V146H340ZM98 146H149V147H98ZM295 146H309V147H295ZM339 146H398V147H339ZM151 146H164V148H151ZM98 147H148V148H98ZM294 147H308V148H294ZM338 147H398V148H338ZM98 148H147V149H98ZM152 148H165V149H152ZM293 148H306V149H293ZM337 148H398V149H337ZM98 149H146V150H98ZM152 149H166V150H152ZM292 149H305V150H292ZM336 149H398V150H336ZM98 150H145V151H98ZM151 150H167V151H151ZM290 150H304V151H290ZM335 150H398V151H335ZM98 151H144V152H98ZM150 151H168V152H150ZM289 151H302V152H289ZM334 151H398V153H334ZM98 152H143V153H98ZM149 152H169V153H149ZM287 152H301V153H287ZM98 153H142V154H98ZM148 153H170V154H148ZM286 153H300V154H286ZM332 153H398V154H332ZM98 154H141V155H98ZM147 154H171V155H147ZM284 154H298V155H284ZM331 154H398V155H331ZM99 155H141V156H99ZM146 155H173V156H146ZM282 155H297V156H282ZM330 155H398V156H330ZM99 156H140V157H99ZM146 156H174V157H146ZM280 156H295V157H280ZM329 156H398V157H329ZM99 157H139V158H99ZM145 157H176V158H145ZM278 157H294V158H278ZM328 157H397V158H328ZM99 158H138V159H99ZM144 158H178V159H144ZM275 158H293V159H275ZM327 158H397V159H327ZM143 159H180V160H143ZM272 159H291V160H272ZM326 159H397V160H326ZM99 159H137V161H99ZM143 160H182V161H143ZM269 160H289V161H269ZM325 160H339V161H325ZM99 161H136V162H99ZM142 161H185V162H142ZM265 161H288V162H265ZM324 161H338V162H324ZM340 160H397V163H340ZM141 162H188V163H141ZM260 162H286V163H260ZM323 162H337V163H323ZM99 162H135V164H99ZM141 163H194V164H141ZM227 163H233V164H227ZM250 163H285V164H250ZM321 163H336V164H321ZM341 163H397V165H341ZM100 164H134V165H100ZM226 164H283V165H226ZM320 164H334V165H320ZM140 164H197V166H140ZM100 165H133V166H100ZM225 165H281V166H225ZM319 165H333V166H319ZM223 166H279V167H223ZM318 166H332V167H318ZM100 166H132V168H100ZM139 166H197V168H139ZM222 167H278V168H222ZM317 167H331V168H317ZM341 165H396V169H341ZM221 168H276V169H221ZM315 168H330V169H315ZM101 168H131V170H101ZM220 169H274V170H220ZM314 169H328V170H314ZM138 168H197V171H138ZM219 170H272V171H219ZM313 170H328V171H313ZM101 170H130V172H101ZM217 171H270V172H217ZM311 171H326V172H311ZM216 172H268V173H216ZM310 172H325V173H310ZM101 172H129V174H101ZM215 173H267V174H215ZM308 173H324V174H308ZM342 169H395V175H342ZM214 174H264V175H214ZM307 174H323V175H307ZM137 171H197V176H137ZM102 174H128V176H102ZM213 175H262V176H213ZM306 175H322V176H306ZM342 175H394V176H342ZM212 176H260V177H212ZM304 176H320V177H304ZM341 176H394V177H341ZM102 176H127V178H102ZM210 177H258V178H210ZM303 177H319V178H303ZM103 178H127V179H103ZM209 178H256V179H209ZM301 178H318V179H301ZM208 179H254V180H208ZM300 179H316V180H300ZM136 176H197V181H136ZM341 177H393V181H341ZM103 179H126V181H103ZM207 180H252V181H207ZM298 180H315V181H298ZM104 181H126V182H104ZM136 181H199V182H136ZM206 181H249V182H206ZM297 181H313V182H297ZM137 182H200V183H137ZM204 182H247V183H204ZM295 182H312V183H295ZM137 183H244V184H137ZM294 183H311V184H294ZM340 181H392V185H340ZM104 182H125V185H104ZM137 184H241V185H137ZM292 184H309V185H292ZM137 185H239V186H137ZM290 185H308V186H290ZM105 185H125V187H105ZM339 185H391V187H339ZM138 186H236V187H138ZM289 186H306V187H289ZM138 187H233V188H138ZM287 187H305V188H287ZM339 187H390V188H339ZM139 188H230V189H139ZM285 188H303V189H285ZM106 187H125V190H106ZM139 189H227V190H139ZM284 189H302V190H284ZM338 188H390V191H338ZM140 190H225V191H140ZM282 190H300V191H282ZM141 191H220V192H141ZM280 191H298V192H280ZM107 190H125V193H107ZM337 191H389V193H337ZM143 192H218V193H143ZM278 192H297V193H278ZM144 193H214V194H144ZM276 193H295V194H276ZM336 193H388V194H336ZM108 193H125V195H108ZM146 194H209V195H146ZM274 194H293V195H274ZM335 194H388V195H335ZM109 195H125V196H109ZM148 195H205V196H148ZM273 195H292V196H273ZM335 195H387V196H335ZM151 196H199V197H151ZM270 196H290V197H270ZM334 196H387V197H334ZM109 196H126V198H109ZM154 197H194V198H154ZM269 197H288V198H269ZM333 197H387V198H333ZM110 198H126V199H110ZM160 198H185V199H160ZM266 198H287V199H266ZM333 198H386V199H333ZM264 199H285V200H264ZM332 199H386V200H332ZM262 200H283V201H262ZM331 200H385V201H331ZM111 199H127V202H111ZM260 201H281V202H260ZM330 201H385V202H330ZM112 202H128V203H112ZM258 202H279V203H258ZM329 202H384V204H329ZM112 203H129V204H112ZM255 203H277V204H255ZM113 204H129V205H113ZM253 204H275V205H253ZM327 204H383V206H327ZM113 205H130V206H113ZM251 205H273V206H251ZM114 206H131V207H114ZM248 206H271V207H248ZM325 206H382V207H325ZM114 207H132V208H114ZM246 207H269V208H246ZM324 207H382V208H324ZM115 208H133V209H115ZM243 208H267V209H243ZM322 208H381V209H322ZM116 209H134V210H116ZM240 209H264V210H240ZM321 209H380V210H321ZM116 210H135V211H116ZM238 210H262V211H238ZM320 210H380V211H320ZM117 211H136V212H117ZM234 211H259V212H234ZM318 211H379V212H318ZM117 212H138V213H117ZM232 212H257V213H232ZM316 212H379V213H316ZM118 213H139V214H118ZM228 213H254V214H228ZM314 213H378V214H314ZM118 214H141V215H118ZM224 214H251V215H224ZM312 214H377V215H312ZM119 215H143V216H119ZM222 215H248V216H222ZM310 215H377V216H310ZM120 216H145V217H120ZM217 216H245V217H217ZM307 216H376V217H307ZM120 217H147V218H120ZM213 217H242V218H213ZM304 217H375V218H304ZM121 218H151V219H121ZM208 218H239V219H208ZM300 218H375V219H300ZM122 219H155V220H122ZM202 219H262V220H202ZM295 219H374V220H295ZM122 220H159V221H122ZM197 220H263V221H197ZM293 220H373V222H293ZM123 221H172V222H123ZM182 221H265V222H182ZM124 222H266V223H124ZM293 222H372V223H293ZM124 223H268V224H124ZM293 223H371V225H293ZM125 224H269V225H125ZM126 225H270V226H126ZM293 225H370V226H293ZM127 226H272V227H127ZM293 226H369V227H293ZM127 227H273V228H127ZM293 227H368V229H293ZM128 228H274V229H128ZM129 229H276V230H129ZM293 229H367V230H293ZM130 230H277V231H130ZM293 230H366V231H293ZM131 231H278V232H131ZM293 231H365V232H293ZM132 232H280V233H132ZM293 232H364V233H293ZM132 233H281V234H132ZM293 233H363V234H293ZM133 234H283V235H133ZM293 234H362V236H293ZM134 235H284V236H134ZM135 236H285V237H135ZM292 236H361V237H292ZM136 237H287V238H136ZM291 237H360V238H291ZM137 238H359V239H137ZM138 239H358V240H138ZM139 240H357V241H139ZM140 241H356V242H140ZM141 242H355V243H141ZM142 243H354V244H142ZM143 244H353V245H143ZM144 245H352V246H144ZM146 246H350V248H146ZM147 248H348V249H147ZM149 249H347V250H149ZM150 250H346V251H150ZM151 251H345V252H151ZM152 252H343V253H152ZM154 253H342V254H154ZM155 254H341V255H155ZM156 255H340V256H156ZM157 256H338V257H157ZM159 257H337V258H159ZM160 258H335V259H160ZM162 259H334V260H162ZM163 260H332V261H163ZM165 261H331V262H165ZM166 262H329V263H166ZM168 263H328V264H168ZM170 264H326V265H170ZM171 265H324V266H171ZM173 266H322V267H173ZM175 267H321V268H175ZM177 268H319V269H177ZM179 269H317V270H179ZM181 270H315V271H181ZM183 271H312V272H183ZM185 272H310V273H185ZM188 273H308V274H188ZM191 274H305V275H191ZM193 275H303V276H193ZM196 276H300V277H196ZM199 277H297V278H199ZM202 278H294V279H202ZM206 279H290V280H206ZM210 280H286V281H210ZM216 281H281V282H216ZM219 282H277V283H219ZM227 283H269V284H227ZM237 284H258V285H237Z" /></clipPath></defs><g data-alpha-boundary-clip="true" clip-path="url(#source-alpha-boundary-clip)">
<path d="M0 0c154 0 308 0 466 0 0 96 0 193 0 292-154 0-308 0-466 0 0-96 0-193 0-292Z" fill="none" transform="translate(0,0)"/>
<path data-fill-layer-id="vtracer-fill-1-fd4b23" d="M0 0c3 0 5 0 8 0 37 0 71 13 99 37-4 3-8 6-13 8-2 1-2 1-4 3 1 0 2 1 3 1 10 2 18 5 24 14 0 2 1 3 2 4 2 4 2 4 5 6 1 0 2 0 3 0 0-1 0-2 1-3 1-3 1-3 3-5 19 31 27 65 21 101-4 19-11 37-23 53-1 1-2 2-2 3-24 32-59 53-98 59-40 6-82-2-115-26-6-4-11-9-16-14-1 0-1 0-3-2-26-25-41-60-41-96-1-30 8-60 26-84 1-1 1-2 2-2 24-31 58-51 97-56 7-1 14-1 21-1Z" fill="#FD4B23" transform="translate(244.1318359375,1.759765625)" />
<path d="M0 0c3 0 6 0 9 0 46 0 46 0 62 16 11 12 14 26 14 42 0 15-7 27-18 37-14 12-30 17-48 17-22 0-22 0-29 6-1 2-2 3-4 5-2 2-3 3-5 5-1 0-2 1-3 2-3 2-4 2-8 1-3-3-3-3-3-7 0-1 0-2 0-4 0-1 0-1 0-4 0-2 0-3 0-4-1 0-2 0-4 0-12-1-22-8-29-17-8-10-9-23-9-36 0-1 0-2 0-3 0-17 4-30 16-41 16-16 38-15 59-15Z" fill="none" transform="translate(228.911376953125,51.794189453125)"/>
<path d="M0 0c1 0 2 0 3 0 9 0 16 1 23 6 5 5 6 10 7 17-1 22-17 39-31 54-1 1-1 2-2 3-20 20-45 35-71 47-1 1-1 1-2 1-20 10-41 16-63 19 0 0 0 0-3 1-20 2-42 2-60-10-6-5-10-11-11-20-1-14 8-27 17-38 1-1 2-1 2-2 4-5 4-5 6-7 1 0 1 0 2 0 1 2 1 3 2 4 0 1-1 2-2 2-8 10-13 18-13 31 0 4 1 6 4 9 18 12 43 8 63 4 46-9 87-33 121-65 1 0 1-1 2-2 10-9 21-21 21-35 0-6 0-6-3-9-7-3-12-3-20-3-3 0-6 0-10 0-2-3-2-3-2-6 7-1 13-1 20-1Z" fill="none" transform="translate(333.875,73.75)"/>
<path d="M0 0c0 0 0 0 2 1 3 14 0 26-7 38-9 12-22 19-36 22-1 0-3 0-4 0 0 1 0 2 0 3 0 1 0 2 0 4 0 1 0 2 0 4 0 3 0 3-2 7-3 1-5 0-8-1-3-2-5-4-8-6 0 0-1-1-2-2-2-1-3-2-5-3-1-1-1-1-2-2-1-1-1-1-2-2-3-2-5-1-9-2-1 0-3 0-4 0-1 0-3 0-4 0-2 0-3 0-5 0-3 0-7 0-10 0 0 0 0-1 0-1 1 0 2 0 3-1 34-9 68-27 94-51 2-1 3-3 5-4 3-3 3-3 4-4Z" fill="none" transform="translate(339,159)"/>
<path data-fill-layer-id="vtracer-fill-2-fc4d23" d="M0 0c1 0 2 0 2 1 5 0 9 0 13 0 7 0 12 0 18 3 3 3 4 5 5 10-2 16-14 27-25 38-1 1-1 1-2 2-12 12-27 24-42 32-4-2-4-2-5-4 1 0 1 0 2 0 0-1 0-3 0-4 0 0 0 0 2-1 15-8 25-19 30-34 4-11 3-23 0-34 0-5 0-5 2-9Z" fill="#FC4D23" transform="translate(313,79)" />
<path data-fill-layer-id="vtracer-fill-3-fa6625" d="M0 0c1 0 1 0 2 0 0 1 0 1 1 2 2 6 4 11 11 14 2 1 4 2 7 3-2 2-4 3-7 4-7 4-9 8-12 15-2-2-3-4-4-7-4-6-9-9-16-11 2-2 4-3 7-4 4-2 7-4 9-9 1-4 1-4 2-7Z" fill="#FA6625" transform="translate(367,29)" />
<path data-fill-layer-id="vtracer-fill-4-f94f23" d="M0 0c4 2 5 3 7 6 0 5 0 8-3 12-4 2-6 2-11 2-4-2-5-3-7-7 0-5 0-7 3-11 4-2 6-2 11-2Z" fill="#F94F23" transform="translate(203,99)" />
<path data-fill-layer-id="vtracer-fill-5-fa4c23" d="M0 0c4 2 4 4 5 8 0 4 0 4-2 7-4 4-4 4-9 4-4 0-4 0-7-2-3-4-3-6-3-11 4-8 8-8 16-6Z" fill="#FA4C23" transform="translate(273,100)" />
<path data-fill-layer-id="vtracer-fill-6-f84b23" d="M0 0c4 3 4 4 5 9-1 4-2 6-5 9-3 2-6 1-10 1-3-2-5-3-6-6-1-7-1-7 2-11 5-4 8-3 14-2Z" fill="#F84B23" transform="translate(239,100)" />
<path data-fill-layer-id="vtracer-fill-7-f65022" d="M0 0c1 0 3 1 4 1 0 1 0 1 0 2 2 0 4-1 6-1 0 1 0 2 0 3-9 8-20 17-31 22-4-2-4-2-5-4 1 0 1 0 2 0 0-1 0-3 0-4 1 0 1-1 2-1 8-4 18-10 22-18Z" fill="#F65022" transform="translate(303,138)" />
<path data-fill-layer-id="vtracer-fill-8-fd6c25" d="M0 0c1 0 1 0 2 0 1 2 1 5 2 7 0 0 0 0-2 1 0 1-1 1-1 2 0-1 0-2 0-3-1-1-3-1-4-2 1 0 3-1 4-1 0-1-1-3-1-4ZM12 1c1 0 1 1 2 1 4 1 7 3 11 4-3 3-6 4-9 6-3 1-5 2-7 4-1 0-1-1-2-1 0-1 0-1 0-2-1 0-2 0-3 0 0-1-1-2-1-3 1 0 1 0 2 0 0-1-1-3-1-4 1-1 1-3 2-4 1 0 3 1 4 1 1-1 1-1 2-2ZM-9 4c1 0 1 0 6 1 0 1-1 2-1 3-1 0-3-1-4-1 0-1-1-2-1-3Z" fill="#FD6C25" transform="translate(363,42)" />
<path data-fill-layer-id="vtracer-fill-9-f86b25" d="M0 0c0 0 1 0 1 0 0 2 0 4 0 6-1-1-2-2-3-3 1-1 1-2 2-3ZM-3 5c1 1 3 1 4 2-1 4-2 7-4 11-1 0-1-1-2-1 0-4 0-5 2-9 0-1 0-2 0-3ZM1 13c1 0 1 1 2 1 0 13 0 25-2 38-1-1-3-1-4-2 1-3 1-7 2-10-1 0-1-1-2-1 1-1 1-2 2-3 1-3 1-4 0-8 0-1 1-3 1-4-1 0-1 0-2 0 0-3 1-5 1-8 1 0 1-1 2-1 0-1 0-1 0-2Z" fill="#F86B25" transform="translate(395,116)" />
<path data-fill-layer-id="vtracer-fill-10-fd6d24" d="M0 0c2 0 3 1 5 1 0 1 0 1 0 2 1 0 1 1 2 1-1 0-2 0-2 1-3 1-3 1-4 4-1 0-1 1-1 2-1 0-1 0-2 0 0 2 0 3 0 5-1 0-3-1-4-1 1-3 1-3 2-7 1-1 3-1 4-2 0-2 0-4 0-6ZM-5 18c1 0 1 1 2 1-1 5-3 8-6 12-3 1-3 1-5 2 0-1 1-1 1-2 1-3 1-5 0-8 0-1 1-1 1-2 1 0 3-1 4-1 1-1 2-1 3-2ZM-16 34c1 1 1 1 2 2-1 1-3 3-4 4-1-1-3-1-4-2 4-2 4-2 6-2 0-1 0-1 0-2Z" fill="#FD6D24" transform="translate(380,193)" />
<path data-fill-layer-id="vtracer-fill-11-fd6923" d="M0 0c-1 1-1 3-2 4-2-1-4-1-6-2 0-1 0-1 0-2 3-1 5-1 8 0ZM1 1c5 0 9 4 13 7 3 3 3 3 4 5 0 1-1 1-1 2-1 0-1-1-2-1 1 1 1 1 2 2 2 3 2 3 2 6-1 2-1 2-2 4-1 0-1-1-2-1 0-1 0-2 0-3 0-4 0-5-3-8 1-1 1-2 2-3-4 0-7-1-11-1 0-1 0-1 0-2-1-1-3-1-4-2 1 0 1-1 2-1 1 1 3 2 4 3-1-1-1-3-2-4-1 0-2 0-3 0 0-1 1-2 1-3ZM9 14c1 0 2 1 3 1 0 0 0 0-2 1 1 2 1 2 3 5-2 0-4 1-6 1 0-2 0-4 0-6 1 0 1 0 2 0 0-1 0-1 0-2Z" fill="#FD6923" transform="translate(343,52)" />
<path data-fill-layer-id="vtracer-fill-12-fe6b23" d="M0 0c1 0 2 0 3 0 1 0 2 0 3 0 1 0 1 0 3 0 3 0 5 0 8 0-2 2-2 2-4 4-3 0-3 0-5-1-1 0-2 1-3 1-2 0-4 0-6 0-1 0-2 0-3 0 0 0 0 0-2 0 0-1 0-1 0-2-1 0-2 1-3 1 0-1 0-1 0-2 3-1 6-1 9-1ZM30 1c0 0 0 0 3 0-1 1-1 2-1 3-7 1-7 1-10 0 0 1 0 2 1 3-1 1-2 2-3 3-2 0-3-1-4-1 0-1 0-3 1-4 0 0 1 0 2 0 0-1 0-2 1-3 0 0 0 0 3 0 3 0 3-1 7-1Z" fill="#FE6B23" transform="translate(243.203125,1.90234375)" />
<path data-fill-layer-id="vtracer-fill-13-fc6924" d="M6 2c7 0 12 1 18 3 0 1-1 3-1 4-5 1-8 1-13 0 1-1 1-2 2-3-1 0-2-1-3-1 0 1 0 1 0 2-4 3-6 2-11 2-1 0-2 0-4 0-1 0-2 0-3 0 0-1-1-1-1-2 2 0 3 0 5 0 3-1 5-1 8-2 1 0 1 1 2 1 0-1 1-3 1-4Z" fill="#FC6924" transform="translate(279,5)" />
<path data-fill-layer-id="vtracer-fill-14-fe6b24" d="M0 0c1 0 1 1 2 1 0 1 0 2 0 3-1 0-1 0-4 2 0-3 0-3 2-6ZM5 1c0 0 1 0 1 0 0 2 0 4 0 6-1 0-3-1-4-1 0-1 0-1 0-2 1-1 2-2 3-3ZM-5 5c2 1 2 1 3 4 0 1 1 2 1 3-2 0-3-1-5-1 0 1-1 3-1 4-1 1-2 1-3 2 0 2-1 5-1 7-1 1-1 1-2 2 1 1 1 2 2 3-1 1-1 2-2 3-1-2-3-5-4-7 1 0 2-1 3-1 0-1-1-2-1-3 0-4 0-4 2-7 1 0 2-1 3-2 2-2 3-4 5-7Z" fill="#FE6B24" transform="translate(138,46)" />
<path data-fill-layer-id="vtracer-fill-15-fd6c24" d="M0 0c1 0 2 1 3 1 0 1 0 1-2 3-2 0-5 0-7 0-6 1-6 1-9 5-2 2-2 2-6 2-3 0-3 0-5-2 0-1 0-1 0-2 3-1 5-2 8-3 1-1 3-1 4-2 5-1 9-1 14-1 0 0 0-1 0-1ZM-13 6c1 0 1 1 2 1 0 1-1 1-1 2 2 0 3 0 5 0 0 1-1 1-1 2-2-1-4-1-6-2 0-1 1-2 1-3Z" fill="#FD6C24" transform="translate(211,6)" />
<path data-fill-layer-id="vtracer-fill-16-fa6a24" d="M0 0c1 1 1 3 2 4-1 1-1 3-2 4-1-1-1-2-2-3 1-4 1-4 2-5ZM-5 6c1 0 2 1 3 1-1 3-2 5-3 8-1 0-3 0-4 0 1-3 3-6 4-9ZM-11 18c1 0 3 0 4 0 0 2 1 4 1 6-1 0-2 1-3 1 0 1 0 2 0 3-1 0-1 0-2 0 0 1 0 1 0 2-1 0-1 0-2 0-1-5 0-7 2-12ZM-8 30c0 0 1 0 1 0 0 2 0 5 0 7-1 0-1-1-2-1 0-2 1-4 1-6Z" fill="#FA6A24" transform="translate(119,71)" />
<path data-fill-layer-id="vtracer-fill-17-fb6824" d="M0 0c1 0 2 0 3 0 0 5-2 7-6 10 0 0-1 0-1 0 0-2 0-4 0-6 1 0 3-1 4-1 0-1 0-2 0-3ZM6 12c2 1 2 1 4 3 0 1 0 1 0 2-3 0-5 0-8 0-1-1-1-3-2-4 1 0 1 0 5 2 0-1 1-2 1-3Z" fill="#FB6824" transform="translate(261,102)" />
<path data-fill-layer-id="vtracer-fill-18-ff4924" d="M0 0c1 0 1 0 2 0 1 2 1 5 2 7 0 0 0 0-2 1 0 1-1 1-1 2 0-1 0-2 0-3-1-1-3-1-4-2 1 0 3-1 4-1 0-1-1-3-1-4ZM6 2c1 1 3 2 4 3-1 1-2 2-3 3 0 1 1 3 1 4 2-1 3-1 5-2-2 5-2 5-4 6-1 0-1-1-2-1 0-1 0-1 0-2-1 0-2 0-3 0 0-1-1-2-1-3 1 0 1 0 2 0 0-1-1-3-1-4 1-1 1-3 2-4ZM-9 4c1 0 1 0 6 1 0 1-1 2-1 3-1 0-3-1-4-1 0-1-1-2-1-3Z" fill="#FF4924" transform="translate(363,42)" />
<path data-fill-layer-id="vtracer-fill-19-fd4923" d="M0 0c1 0 1 1 2 1 0 3-1 6-1 9 1 0 2-1 3-1 0 2 1 3 1 5-2 1-3 1-5 2-1-1-2-2-3-3 0 0 0 0-2 1 1-5 3-9 5-14Z" fill="#FD4923" transform="translate(311,123)" />
<path data-fill-layer-id="vtracer-fill-20-f44c23" d="M0 0c1 0 3 1 4 1 0 1 0 1 0 2 2 0 4-1 6-1 0 1 0 2 0 3-2 2-5 3-7 5 0-2-1-3-1-5-1 1-2 1-3 2-1 0-1 0-2 0-2 3-2 3-2 6-1-1-1-1-2-2 1-5 3-7 7-11Z" fill="#F44C23" transform="translate(303,138)" />
<path data-fill-layer-id="vtracer-fill-21-fa6d2a" d="M0 0c2 4 2 6 2 11 0 1-1 2-1 4 0 3 0 7-1 10-1-1-3-1-4-2 1-3 1-7 2-10-1 0-1-1-2-1 1-1 1-2 2-3 1-3 1-3 0-7 1-1 1-1 2-2Z" fill="#FA6D2A" transform="translate(396,143)" />
<path data-fill-layer-id="vtracer-fill-22-f96a25" d="M0 3c1 4 1 4 1 7-2-2-3-3-5-5 1-1 3-1 4-2ZM4 4c1 0 2 1 3 1 1 3 1 3 2 5-1 0-2 1-3 1 0-1 0-1 0-2-1 0-2-1-3-1 0-1 1-3 1-4Z" fill="#F96A25" transform="translate(131,222)" />
<path data-fill-layer-id="vtracer-fill-23-f76a27" d="M0 0c1 1 2 2 3 3 0 1 0 1 0 2-1 0-2 1-3 1-1 0-1-1-2-1 0-1 0-2 0-3 1 0 1 0 2 0 0-1 0-1 0-2ZM4 4c1 1 3 1 4 2-3 2-5 3-8 5-1 0-2-1-3-1 2-1 5-3 7-4 0-1 0-1 0-2ZM-5 5c1 0 2 0 3 0 0 1 1 3 1 4-2 1-3 1-5 2 0 1 1 2 1 3-2 0-4 1-6 1 3-6 3-6 6-8 0-1 0-1 0-2Z" fill="#F76A27" transform="translate(343,33)" />
<path data-fill-layer-id="vtracer-fill-24-fd6b24" d="M0 0c2 0 3 1 5 1 0 1 0 1 0 2 1 0 1 1 2 1-1 0-2 0-2 1-3 1-3 1-4 4-1 0-1 1-1 2-1 0-1 0-2 0-1 1-1 3-2 4-1 0-1 0-2 0 1-3 1-3 2-7 1-1 3-1 4-2 0-2 0-4 0-6Z" fill="#FD6B24" transform="translate(380,193)" />
<path data-fill-layer-id="vtracer-fill-25-ff6d24" d="M0 0c2 1 4 2 6 3 0 2 0 5 0 7-2 0-3 1-5 1 1 0 2-1 3-1-1-1-1-3-2-4-1 0-1 0-2 0 0-2 0-4 0-6ZM-4 8c1 0 1 1 2 1 0 2-1 3-1 5-1 0-1 0-2 0 0-1-1-3-1-4 1-1 1-1 2-2Z" fill="#FF6D24" transform="translate(312,127)" />
<path data-fill-layer-id="vtracer-fill-26-fd6b25" d="M9 1c1 0 1 0 3 0 0 1-1 2-1 3-7 1-7 1-10 0 0 1 1 2 1 3-1 1-2 2-3 3-1 0-3-1-4-1 0-1 1-3 1-4 1 0 2-1 3-1 0-1 1-1 1-2 0 0 0 0 2 0 4 0 4-1 7-1Z" fill="#FD6B25" transform="translate(264,2)" />
<path data-fill-layer-id="vtracer-fill-25-ff6d24" d="M2 3c1 1 1 3 2 4 1 0 1 0 2 0 0 2 0 3 0 5-2-1-2-1-3-3-1-3-1-3-1-6ZM-4 6c1 1 3 1 4 2 0 2-1 5-1 7-1 0-3 0-4 0 0-3 0-4 2-6 0-1-1-2-1-3Z" fill="#FF6D24" transform="translate(318,111)" />
<path data-fill-layer-id="vtracer-fill-27-f56825" d="M0 0c2 0 3 1 5 1 0 1 0 2 0 3-2 0-3 1-5 1 0-1-1-3-1-4 0 0 1-1 1-1ZM10 5c1 1 3 1 4 2 0 1 0 2 0 3-1 0-1 0-2 0 0 1-1 2-1 3-1-2-1-4-2-6 0-1 1-1 1-2Z" fill="#F56825" transform="translate(325,22)" />
<path data-fill-layer-id="vtracer-fill-28-ff6d26" d="M2 1c1 1 2 1 3 2 0 1 0 1 0 2-5 2-9 2-14 2 0-1-1-3-1-4 1 0 2 0 2 1 5 0 6-1 10-3Z" fill="#FF6D26" transform="translate(227,2)" />
<path data-fill-layer-id="vtracer-fill-29-f86825" d="M0 0c1 0 2 1 3 1-1 1-3 3-4 4 0-2 1-3 1-5ZM-9 6c0 1 1 1 1 2 1 0 1 1 2 1-2 0-3 1-5 1 1 0 1-1 2-1 0-1 0-2 0-3ZM-8 10c0 0 1 0 1 0 0 2 0 4 0 6-1 0-1 0-2 0 0-1-1-3-1-4 1-1 1-1 2-2Z" fill="#F86825" transform="translate(167,22)" />
<path data-fill-layer-id="vtracer-fill-25-ff6d24" d="M0 0c1 0 1 1 2 1 0 2 0 4 0 6-1 0-1 0-4 2 0-1-1-1-1-2 0-1 1-1 1-2 1 0 1 0 2 0 0-2 0-3 0-5ZM6 7c0 3 0 3 0 6-1 1-2 2-3 3-3-3-3-3-4-7 1 0 1 0 2 0 1 1 1 1 2 2 0-1 0-2 0-3 2-1 2-1 3-1Z" fill="#FF6D24" transform="translate(108,177)" />
<path data-fill-layer-id="vtracer-fill-17-fb6824" d="M6 7c2 1 2 1 5 2 1 3 1 3 1 6-2 0-3-1-5-1 0-2-1-5-1-7Z" fill="#FB6824" transform="translate(372,71)" />
<path data-fill-layer-id="vtracer-fill-30-fc6a24" d="M-4 3c1 0 3 0 4 0 0 1 0 2 0 3-2 0-3 1-5 1 0 1 0 2 0 3-1 0-2 1-3 1-1 0-1-1-2-1 0-1 0-1 0-2 1 0 2 0 3 0-1-1-1-1-2-2 1 0 3-1 4-1 0-1 1-1 1-2Z" fill="#FC6A24" transform="translate(190,260)" />
<path data-fill-layer-id="vtracer-fill-31-fc6c24" d="M2 8c0 1 1 1 1 2 0 1-1 2-1 3-1 0-2 0-3 0 2-4 2-4 3-5Z" fill="#FC6C24" transform="translate(338,242)" />
<path data-fill-layer-id="vtracer-fill-32-fe6d24" d="M-2 1c1 0 1 1 2 1 0 1-1 3-1 4 1 1 2 2 3 3-1 0-3-1-4-1 0 1 0 2 0 3-1 0-2-1-3-1 1-3 2-6 3-9Z" fill="#FE6D24" transform="translate(354,231)" />
<path data-fill-layer-id="vtracer-fill-33-f66825" d="M0 0c1 1 1 3 2 4-1 1-1 3-2 4-1-1-1-2-2-3 1-4 1-4 2-5ZM-5 6c1 0 2 1 3 1-1 3-2 5-3 8-1 0-3 0-4 0 1-3 3-6 4-9Z" fill="#F66825" transform="translate(119,71)" />
<path data-fill-layer-id="vtracer-fill-10-fd6d24" d="M0 0c0 1 0 2 0 3 1 0 1 0 2 0 0 1 0 1 0 2-1 0-1 0-2 0 0 1-1 2-1 3 0-1-1-3-1-4-1 0-3-1-4-1 4-3 4-3 6-3ZM-10 5c0 1 1 1 1 2 1 0 1 0 2 0 0 1-1 2-1 3-1 0-3 1-4 1 0 0 0 0-2 1 2-4 2-4 4-7Z" fill="#FD6D24" transform="translate(154,34)" />
<path data-fill-layer-id="vtracer-fill-25-ff6d24" d="M0 0c1 0 1 0 6 1 0 1 0 2 0 3-3 1-6 1-9 2-3 0-7 0-10 1 1-2 1-2 3-4 3 0 3 0 6 0 1 0 2 0 3 0 1 0 2 0 3 0 0-1 0-1 0-2-1 0-1-1-2-1Z" fill="#FF6D24" transform="translate(234,9)" />
<path data-fill-layer-id="vtracer-fill-29-f86825" d="M0 0c4 1 8 3 11 5 0 1 0 1 0 2-1 0-2-1-3-1-3-1-3-1-6 0-1-2-1-4-2-6Z" fill="#F86825" transform="translate(313,15)" />
<path data-fill-layer-id="vtracer-fill-34-f76925" d="M0 0c-1 1-1 3-2 4-2-1-4-1-6-2 0-1 0-1 0-2 3-1 5-1 8 0ZM1 1c5 1 5 1 7 3 0 0 0 0-2 3-1-1-2-2-3-3-1 0-2 0-3 0 0-1 1-2 1-3Z" fill="#F76925" transform="translate(343,52)" />
<path data-fill-layer-id="vtracer-fill-35-fb6d24" d="M0 0c1 1 1 2 2 3-1 1-2 2-3 3-1 0-1 0-2 0 0-1 0-1 0-2-1 0-2-1-3-1 0-1 0-1 0-2 2 0 4-1 6-1ZM0 4c1 0 2 1 3 1-1 4-1 4-3 6-1-5-1-5 0-7Z" fill="#FB6D24" transform="translate(385,86)" />
<path data-fill-layer-id="vtracer-fill-36-fd6922" d="M0 0c1 0 2 1 3 1 0 1 0 1-2 3-4 0-4 0-7 0 0 0-1 1-1 1-2 0-3 0-5 0 0-1 0-2 0-3 4-1 8-1 12-1 0 0 0-1 0-1Z" fill="#FD6922" transform="translate(211,6)" />
<path data-fill-layer-id="vtracer-fill-37-fb6426" d="M0 0c3 1 6 1 9 2 0 1 0 1 2 3-5 1-7 0-12-1 0-1 1-3 1-4Z" fill="#FB6426" transform="translate(205,275)" />
<path data-fill-layer-id="vtracer-fill-38-ff6c23" d="M2 1c1 1 3 3 4 4-1 0-1 0-5-2 0-1 1-1 1-2ZM-3 3c1 0 1 0 5 1 0 2-1 4-1 6-1 0-3 0-4 0 1-2 1-2 2-3-1 0-1-1-2-1 0-1 0-2 0-3Z" fill="#FF6C23" transform="translate(143,218)" />
<path data-fill-layer-id="vtracer-fill-39-f76a25" d="M0 0c5 0 8 0 12 3 0 1 1 1 1 2-5-1-9-2-13-4 0 0 0-1 0-1Z" fill="#F76A25" transform="translate(184,271)" />
<path data-fill-layer-id="vtracer-fill-40-ff6d25" d="M0 0c0 0 1 0 1 0 0 2 0 5 0 7-1 0-1 0-2 0 0 1 0 1 0 2-2 0-3-1-5-1 0-2 0-3 0-5 1 0 3 1 4 1 1-1 1-3 2-4Z" fill="#FF6D25" transform="translate(129,214)" />
<path data-fill-layer-id="vtracer-fill-41-f86525" d="M0 0c1 0 1 0 6 1 0 1 0 3 0 4-2 0-3-1-5-1 0-1-1-3-1-4ZM6 5c1 0 1 0 2 0 0 2-1 4-1 6-1-1-2-2-3-3 1-1 1-2 2-3Z" fill="#F86525" transform="translate(114,205)" />
<path data-fill-layer-id="vtracer-fill-25-ff6d24" d="M0 0c1 0 2 1 3 1 0 1-1 3-1 4-3 2-3 2-6 3 0-2-1-3-1-5 1 0 2 0 3 0 1-1 1-2 2-3Z" fill="#FF6D24" transform="translate(135,147)" />
<path data-fill-layer-id="vtracer-fill-42-ee4924" d="M-13 14c1 1 1 1 2 2-1 0-1 0-5 3 2-4 2-4 3-5Z" fill="#EE4924" transform="translate(142,41)" />
<path data-fill-layer-id="vtracer-fill-43-fb6d2a" d="M0 0c1 0 1 0 9 2-4 3-6 2-10 1 0-1 1-2 1-3ZM-5 4c7 0 7 0 10 2-3 0-7 0-10 0 0-1 0-1 0-2Z" fill="#FB6D2A" transform="translate(261,278)" />
<path data-fill-layer-id="vtracer-fill-25-ff6d24" d="M0 0c1 0 1 0 2 0 0 0 0 0 1 3 1 3 1 3 2 6 0 0 1 1 1 2 0 1-1 1-1 2-1 0-1 0-2 0 0-1 0-1 0-2-1 0-1 0-2 0 0-4-1-7-1-11Z" fill="#FF6D24" transform="translate(105,138)" />
<path data-fill-layer-id="vtracer-fill-44-fc6b25" d="M0 0c1 0 1 0 2 0 0 2 1 4 1 6 1 0 1 0 2 0 0 1 0 2 0 3-1 0-1 0-2 0-2-3-3-5-3-9ZM-1 7c0 1 1 1 1 2 1 0 2 0 3 0 0 1-1 2-1 3-1 0-2-1-3-1 0-1-1-2-1-3 0 0 1-1 1-1Z" fill="#FC6B25" transform="translate(103,103)" />
<path data-fill-layer-id="vtracer-fill-45-fa6b2a" d="M0 0c0 1-1 2-1 3-2 0-5 0-7 0 0-1 0-1 0-2 4-1 4-1 8-1ZM-2 4c0 1 0 1 0 2-3 0-5 0-8 0 4-2 4-2 8-2Z" fill="#FA6B2A" transform="translate(240,278)" />
<path data-fill-layer-id="vtracer-fill-25-ff6d24" d="M0 0c1 0 1 0 2 0 0 3 0 6 0 9 0 0 0 0-2 1-1-8-1-8 0-10Z" fill="#FF6D24" transform="translate(368,198)" />
<path data-fill-layer-id="vtracer-fill-46-fd6d25" d="M7 2c1 0 1 0 4 1 0 1-1 2-1 3-1 0-3-1-4-1 0-1 1-2 1-3Z" fill="#FD6D25" transform="translate(364,73)" />
<path data-fill-layer-id="vtracer-fill-25-ff6d24" d="M0 0c1 0 1 1 2 1-1 1-1 3-2 4-1 0-3 1-4 1 0 0 0 0-2 1-1 0-1-1-2-1 0-1 0-2 0-3 1 0 2 0 3 0 2-1 3-1 4-1 0-1 1-1 1-2Z" fill="#FF6D24" transform="translate(314,65)" />
<path data-fill-layer-id="vtracer-fill-28-ff6d26" d="M-7 3c1 0 1 0 6 1-2 2-2 2-4 4-1 0-3-1-4-1 0-1 0-1 0-2 1 0 1 0 2 0 0-1 0-1 0-2Z" fill="#FF6D26" transform="translate(289,273)" />
<path data-fill-layer-id="vtracer-fill-47-f96a26" d="M4 5c1 0 2 1 3 1 0 2 1 4 1 6-1 0-3-1-4-1-1-3-1-3 0-6Z" fill="#F96A26" transform="translate(108,192)" />
<path data-fill-layer-id="vtracer-fill-25-ff6d24" d="M0 0c0 1-1 3-1 4-1 0-1 0-9 1 0-1 0-2 0-3 4-2 6-2 10-2Z" fill="#FF6D24" transform="translate(242,106)" />
<path data-fill-layer-id="vtracer-fill-48-fd6a22" d="M0 0c1 0 1 0 4 1-1 1-2 2-3 3-1-1-1-1-2-2 0-1 1-1 1-2Z" fill="#FD6A22" transform="translate(343,98)" />
<path data-fill-layer-id="vtracer-fill-49-f96825" d="M0 0c1 3 1 5 2 8-1 0-2 0-3 0 0-1-1-2-1-3-1-1-2-2-3-3 3-2 3-2 5-2Z" fill="#F96825" transform="translate(391,98)" />
<path data-fill-layer-id="vtracer-fill-50-f94a25" d="M0 0c1 0 1 1 2 1 0 1-1 2-1 3-3 1-3 1-5 2 0-1 0-3 0-4 1 0 3 0 4 0 0-1 0-1 0-2Z" fill="#F94A25" transform="translate(346,36)" />
<path data-fill-layer-id="vtracer-fill-13-fc6924" d="M0 0c1 0 3 1 4 1 0 1 0 3 0 4-2-1-5-1-7-2 1-1 2-2 3-3Z" fill="#FC6924" transform="translate(294,271)" />
<path data-fill-layer-id="vtracer-fill-51-fb6b24" d="M0 0c1 0 1 0 2 0 0 1 0 1 0 2 1 0 3 1 4 1 1 1 2 2 3 3-2 0-5 1-7 1-2-5-2-5-2-7Z" fill="#FB6B24" transform="translate(318,258)" />
<path data-fill-layer-id="vtracer-fill-52-fc6d24" d="M0 0c1 0 1 1 2 1 0 2-1 4-1 6 1 0 1 1 2 1-1 0-2 0-3 0-1-4-1-4 0-8ZM5 4c0 0 1 0 1 0 0 2 0 4 0 6-1 0-2-1-3-1 0-1 0-2 0-3 1 0 1 0 2 0 0-1 0-1 0-2Z" fill="#FC6D24" transform="translate(100,153)" />
<path data-fill-layer-id="vtracer-fill-53-ff6a24" d="M0 0c2 0 3 0 5 0 0 1 0 2 0 3-2 0-3 1-5 1 0-1-1-1-1-2 0-1 1-1 1-2Z" fill="#FF6A24" transform="translate(280,49)" />
<path data-fill-layer-id="vtracer-fill-54-fd4924" d="M0 0c1 1 2 1 3 2 0 1 0 1 0 2-1 0-3 0-4 0 0 1 0 1 0 2-1 0-1 0-2 0 1-2 2-4 3-6Z" fill="#FD4924" transform="translate(374,46)" />
<path data-fill-layer-id="vtracer-fill-25-ff6d24" d="M0 0c1 0 1 1 2 1 0 1 1 2 1 3 0 1 0 1-2 3-1 0-1 0-2 0 0 1 0 3 0 4-1 0-1 0-2 0 0-4 1-7 3-11Z" fill="#FF6D24" transform="translate(341,91)" />
<path data-fill-layer-id="vtracer-fill-55-f76124" d="M0 0c0 0 1 0 1 0 0 5 0 10-1 15-1-1-3-1-4-2 0-1 1-2 1-3 1-3 2-6 3-10Z" fill="#F76124" transform="translate(396,153)" />
<path data-fill-layer-id="vtracer-fill-56-fb6525" d="M0 0c0 1-1 2-1 3-3 1-3 1-6 2-1-1-1-2-2-3 6-3 6-3 9-2Z" fill="#FB6525" transform="translate(183,16)" />
<path data-fill-layer-id="vtracer-fill-57-f4491d" d="M0 0c-2 1-3 3-5 4-1-1-2-1-3-2 3-2 4-2 8-2ZM-10 3c1 1 3 1 4 2-1 1-1 1-2 2-1 0-2 0-3 0 0-1 1-3 1-4Z" fill="#F4491D" transform="translate(269,99)" />
<path data-fill-layer-id="vtracer-fill-46-fd6d25" d="M2 1c1 1 2 1 3 2 0 1 0 1 0 2-4 2-5 2-9 1 1 0 1 0 2 0 1-1 1-3 2-4 1 0 1-1 2-1Z" fill="#FD6D25" transform="translate(227,2)" />
<path data-fill-layer-id="vtracer-fill-22-f96a25" d="M0 0c1 1 3 1 4 2 0 1 0 2 0 3-1 0-1 0-2 0 0 1-1 2-1 3-1-2-1-4-2-6 0-1 1-1 1-2Z" fill="#F96A25" transform="translate(335,27)" />
<path data-fill-layer-id="vtracer-fill-58-f06a2c" d="M0 0c2 1 5 1 7 2-2 2-2 2-6 3 0-2-1-3-1-5Z" fill="#F06A2C" transform="translate(381,46)" />
<path data-fill-layer-id="vtracer-fill-25-ff6d24" d="M4 0c1 0 1 1 2 1-1 1-3 3-4 4-1-1-3-1-4-2 2-1 4-2 6-3Z" fill="#FF6D24" transform="translate(360,228)" />
<path data-fill-layer-id="vtracer-fill-25-ff6d24" d="M0 0c1 0 1 0 2 0 2 3 2 4 2 8 0 0 0 0-2 1-2-4-2-5-2-9Z" fill="#FF6D24" transform="translate(106,164)" />
<path data-fill-layer-id="vtracer-fill-25-ff6d24" d="M0 0c1 0 2 0 3 0 0 3 0 5 0 8-1 0-2 0-3 0 0-3 0-5 0-8Z" fill="#FF6D24" transform="translate(380,112)" />
<path data-fill-layer-id="vtracer-fill-59-fa4d27" d="M0 0c-1 0-2 1-2 1-3 1-3 1-5 3-1 0-2 1-3 1 0-1-1-2-1-3 6-3 6-3 11-2Z" fill="#FA4D27" transform="translate(200,10)" />
<path data-fill-layer-id="vtracer-fill-60-fa4a24" d="M0 0c0 1 1 2 1 3-2 2-3 3-5 5 0-2 1-5 1-7 1 0 2-1 3-1Z" fill="#FA4A24" transform="translate(374,215)" />
<path data-fill-layer-id="vtracer-fill-40-ff6d25" d="M4 3c1 0 1 0 5 2 0 0 0 1 0 1-2 0-4 0-6 0 0-1 1-2 1-3Z" fill="#FF6D25" transform="translate(227,112)" />
<path data-fill-layer-id="vtracer-fill-61-f66625" d="M0 0c1 1 2 1 3 2 0 3 0 3 0 5-2-1-4-2-6-3 0-1 1-1 1-2 1 0 1 0 2 0 0-1 0-1 0-2Z" fill="#F66625" transform="translate(172,260)" />
<path data-fill-layer-id="vtracer-fill-25-ff6d24" d="M0 0c0 1-1 2-1 3-2 0-3 1-5 1 0-1 0-2 0-3 3-1 3-1 6-1Z" fill="#FF6D24" transform="translate(301,233)" />
<path data-fill-layer-id="vtracer-fill-25-ff6d24" d="" fill="#FF6D24" transform="translate(118,178)" />
<path data-fill-layer-id="vtracer-fill-25-ff6d24" d="M0 0c1 3 1 5 0 9-1 0-1-1-2-1 0-1 0-1 0-2-1 0-1-1-2-1 1-2 3-3 4-5Z" fill="#FF6D24" transform="translate(396,150)" />
<path data-fill-layer-id="vtracer-fill-25-ff6d24" d="M0 0c1 0 3 1 4 1 0 1 0 3 0 4-1 0-1 0-2 0 0 1-1 1-1 2 0-1-1-3-1-4 0 0 1-1 1-1 0-1-1-1-1-2Z" fill="#FF6D24" transform="translate(226,103)" />
<path data-fill-layer-id="vtracer-fill-24-fd6b24" d="M0 0c1 1 2 2 3 3 0 1 0 2 0 3-2 2-2 2-4 3-1-4-1-5 1-9Z" fill="#FD6B24" transform="translate(101,119)" />
<path data-fill-layer-id="vtracer-fill-25-ff6d24" d="M0 0c3 0 5 0 8 0 0 1 0 1 0 2-2 1-4 1-6 2-1-1-1-3-2-4Z" fill="#FF6D24" transform="translate(175,258)" />
<path data-fill-layer-id="vtracer-fill-25-ff6d24" d="M0 0c1 1 2 2 3 3-6 1-6 1-8 0 0-1 0-1 0-2 2-1 2-1 5-1Z" fill="#FF6D24" transform="translate(358,137)" />
<path data-fill-layer-id="vtracer-fill-25-ff6d24" d="M0 0c1 0 1 0 2 0 0 1 0 1 0 2 1 0 1 1 2 1 0 1 0 1-2 3-2-3-2-3-2-6Z" fill="#FF6D24" transform="translate(150,79)" />
<path data-fill-layer-id="vtracer-fill-62-ff6924" d="M0 0c1 1 1 3 2 4-1 1-1 3-2 4-1-1-1-2-2-3 1-4 1-4 2-5Z" fill="#FF6924" transform="translate(119,71)" />
<path data-fill-layer-id="vtracer-fill-25-ff6d24" d="M0 0c1 0 1 0 3 2 1 0 3 0 4 0 0 1 0 1 0 2-2 0-5 1-7 1 0-1-1-2-1-3 0-1 1-1 1-2Z" fill="#FF6D24" transform="translate(345,164)" />
<path data-fill-layer-id="vtracer-fill-25-ff6d24" d="M0 0c1 1 2 1 3 2 0 1 0 1 0 2-1 0-2 0-3 0 0 1-1 3-1 4-1-3-1-3-1-7 1 0 1-1 2-1Z" fill="#FF6D24" transform="translate(388,108)" />
<path data-fill-layer-id="vtracer-fill-25-ff6d24" d="M0 0c0 1 1 1 1 2 3 1 3 1 5 1-1 0-1 0-4 2-1 0-1-1-2-1 0 1-1 1-1 2 0-2 0-3 0-5 0 0 1-1 1-1Z" fill="#FF6D24" transform="translate(191,106)" />
<path data-fill-layer-id="vtracer-fill-10-fd6d24" d="M1 4c0 0 1 0 1 0 0 2 0 4 0 6-1 0-1 0-2 0 0-1-1-3-1-4 1-1 1-1 2-2Z" fill="#FD6D24" transform="translate(158,28)" />
<path data-fill-layer-id="vtracer-fill-25-ff6d24" d="M0 0c0 1 0 1-2 3-1 0-1 0-6-1 0-1 1-1 1-2 4-1 4-1 7 0Z" fill="#FF6D24" transform="translate(214,7)" />
<path data-fill-layer-id="vtracer-fill-63-f75d28" d="M0 0c1 0 1 0 5 2 0 1 0 1-2 3-1 0-2 0-3 0 0-2 0-3 0-5Z" fill="#F75D28" transform="translate(123,217)" />
<path data-fill-layer-id="vtracer-fill-64-f7461c" d="M0 0c1 0 1 1 2 1-1 4-2 5-5 8 1-3 2-6 3-9Z" fill="#F7461C" transform="translate(311,123)" />
<path data-fill-layer-id="vtracer-fill-65-fb4924" d="M0 0c1 0 1 0 6 1 0 1-1 2-1 3-1 0-3-1-4-1 0-1-1-2-1-3Z" fill="#FB4924" transform="translate(354,46)" />
<path data-fill-layer-id="vtracer-fill-66-f56928" d="M0 0c0 1 0 1 0 2 1 0 1 1 2 1-3 0-3 0-6 0-1-1-1-1-2-2 2-1 2-1 6-1Z" fill="#F56928" transform="translate(355,47)" />
<path data-fill-layer-id="vtracer-fill-67-e7552a" d="M-3 4c1 1 1 1 2 2-1 0-1 0-5 3 2-4 2-4 3-5Z" fill="#E7552A" transform="translate(132,51)" />
<path data-fill-layer-id="vtracer-fill-68-f86828" d="M0 0c2 0 5 1 7 1-1 1-1 3-2 4-1-1-2-2-3-3-1 0-2-1-3-1 0 0 1-1 1-1Z" fill="#F86828" transform="translate(344,54)" />
<path data-fill-layer-id="vtracer-fill-69-f64b24" d="M0 0c0 1 1 1 1 2-1 1-3 3-4 4-1-1-1-1-2-2 1 0 1 0 2 0 0-1 1-2 1-3 1 0 1-1 2-1Z" fill="#F64B24" transform="translate(375,52)" />
<path data-fill-layer-id="vtracer-fill-25-ff6d24" d="M0 0c0 1-1 2-1 3-1 0-3 1-4 1 0 0 0 0-2 1 2-5 2-5 7-5Z" fill="#FF6D24" transform="translate(147,41)" />
</g></svg>